<svg class="CookiePolicy__image" width="31" height="31" viewBox="0 0 31 31" fill="none" xmlns="http://www.w3.org/2000/svg">
                    <g clip-path="url(#clip0_595_3947)">
                    <path d="M29.0786 9.76219C27.9963 10.326 26.9158 9.94319 26.3793 9.15812C26.3209 9.07263 26.2238 9.02419 26.1204 9.02913C26.0909 9.0305 26.0611 9.03125 26.0312 9.03125C25.3446 9.03125 24.7392 8.685 24.3791 8.15781C24.3208 8.07244 24.2238 8.02425 24.1205 8.02913C24.0909 8.0305 24.0612 8.03125 24.0312 8.03125C22.9267 8.03125 22.0312 7.13581 22.0312 6.03125C22.0312 6.00131 22.032 5.97156 22.0334 5.94194C22.0382 5.83869 21.9901 5.74169 21.9047 5.68337C21.3775 5.32331 21.0312 4.71788 21.0312 4.03125C21.0312 4.00131 21.032 3.97162 21.0334 3.94206C21.0382 3.83862 20.9899 3.74156 20.9044 3.68319C20.1194 3.14675 19.7366 2.06619 20.3004 0.983938C18.6609 0.368625 16.8856 0.03125 15.0312 0.03125C6.747 0.03125 0.03125 6.747 0.03125 15.0312C0.03125 23.3155 6.747 30.0312 15.0312 30.0312C23.3155 30.0312 30.0312 23.3155 30.0312 15.0312C30.0312 13.1769 29.6939 11.4016 29.0786 9.76219Z" fill="#F28A39"></path>
                    <path d="M15.0312 30.0312C11.0246 30.0312 7.25781 28.471 4.42462 25.6379C1.59144 22.8047 0.03125 19.0379 0.03125 15.0312C0.03125 14.4789 0.479 14.0312 1.03125 14.0312C1.5835 14.0312 2.03125 14.4789 2.03125 15.0312C2.03125 22.1994 7.86306 28.0312 15.0312 28.0312C22.1994 28.0312 28.0312 22.1994 28.0312 15.0312C28.0312 14.4789 28.479 14.0312 29.0312 14.0312C29.5835 14.0312 30.0312 14.4789 30.0312 15.0312C30.0312 19.0379 28.471 22.8047 25.6379 25.6379C22.8047 28.471 19.0379 30.0312 15.0312 30.0312Z" fill="#D26E28"></path>
                    <path d="M1.03125 16.0312C0.479 16.0312 0.03125 15.5836 0.03125 15.0312C0.03125 11.0246 1.5915 7.25775 4.42462 4.42462C7.25775 1.5915 11.0246 0.03125 15.0312 0.03125C15.5835 0.03125 16.0312 0.478938 16.0312 1.03125C16.0312 1.58356 15.5835 2.03125 15.0312 2.03125C7.86306 2.03125 2.03125 7.86306 2.03125 15.0312C2.03125 15.5836 1.5835 16.0312 1.03125 16.0312Z" fill="#FFAA5A"></path>
                    <path d="M27.0312 8.03125C27.5835 8.03125 28.0312 7.58353 28.0312 7.03125C28.0312 6.47897 27.5835 6.03125 27.0312 6.03125C26.479 6.03125 26.0312 6.47897 26.0312 7.03125C26.0312 7.58353 26.479 8.03125 27.0312 8.03125Z" fill="#F28A39"></path>
                    <path d="M11.0312 13.0312C12.1358 13.0312 13.0312 12.1358 13.0312 11.0312C13.0312 9.92668 12.1358 9.03125 11.0312 9.03125C9.92668 9.03125 9.03125 9.92668 9.03125 11.0312C9.03125 12.1358 9.92668 13.0312 11.0312 13.0312Z" fill="#A55023"></path>
                    <path d="M10.2812 11.0312C10.6955 11.0312 11.0312 10.6955 11.0312 10.2812C11.0312 9.86704 10.6955 9.53125 10.2812 9.53125C9.86704 9.53125 9.53125 9.86704 9.53125 10.2812C9.53125 10.6955 9.86704 11.0312 10.2812 11.0312Z" fill="#D26E28"></path>
                    <path d="M20.0312 23.0312C21.1358 23.0312 22.0312 22.1358 22.0312 21.0312C22.0312 19.9267 21.1358 19.0312 20.0312 19.0312C18.9267 19.0312 18.0312 19.9267 18.0312 21.0312C18.0312 22.1358 18.9267 23.0312 20.0312 23.0312Z" fill="#A55023"></path>
                    <path d="M19.2812 21.0312C19.6955 21.0312 20.0312 20.6955 20.0312 20.2812C20.0312 19.867 19.6955 19.5312 19.2812 19.5312C18.867 19.5312 18.5312 19.867 18.5312 20.2812C18.5312 20.6955 18.867 21.0312 19.2812 21.0312Z" fill="#D26E28"></path>
                    <path d="M25.0312 18.0312C26.1358 18.0312 27.0312 17.1358 27.0312 16.0312C27.0312 14.9267 26.1358 14.0312 25.0312 14.0312C23.9267 14.0312 23.0312 14.9267 23.0312 16.0312C23.0312 17.1358 23.9267 18.0312 25.0312 18.0312Z" fill="#A55023"></path>
                    <path d="M24.2812 16.0312C24.6955 16.0312 25.0312 15.6955 25.0312 15.2812C25.0312 14.867 24.6955 14.5312 24.2812 14.5312C23.867 14.5312 23.5312 14.867 23.5312 15.2812C23.5312 15.6955 23.867 16.0312 24.2812 16.0312Z" fill="#D26E28"></path>
                    <path d="M23.5312 4.03125C23.8074 4.03125 24.0312 3.80739 24.0312 3.53125C24.0312 3.25511 23.8074 3.03125 23.5312 3.03125C23.2551 3.03125 23.0312 3.25511 23.0312 3.53125C23.0312 3.80739 23.2551 4.03125 23.5312 4.03125Z" fill="#F28A39"></path>
                    <path d="M28.5312 5.03125C28.8074 5.03125 29.0312 4.80739 29.0312 4.53125C29.0312 4.25511 28.8074 4.03125 28.5312 4.03125C28.2551 4.03125 28.0312 4.25511 28.0312 4.53125C28.0312 4.80739 28.2551 5.03125 28.5312 5.03125Z" fill="#F28A39"></path>
                    <path d="M20.0312 14.0312C20.5835 14.0312 21.0312 13.5835 21.0312 13.0312C21.0312 12.479 20.5835 12.0312 20.0312 12.0312C19.479 12.0312 19.0312 12.479 19.0312 13.0312C19.0312 13.5835 19.479 14.0312 20.0312 14.0312Z" fill="#A55023"></path>
                    <path d="M13.198 29.1978C13.7503 29.1978 14.198 28.75 14.198 28.1978C14.198 27.6455 13.7503 27.1978 13.198 27.1978C12.6457 27.1978 12.198 27.6455 12.198 28.1978C12.198 28.75 12.6457 29.1978 13.198 29.1978Z" fill="#A55023"></path>
                    <path d="M7.03125 21.0312C7.58353 21.0312 8.03125 20.5835 8.03125 20.0312C8.03125 19.479 7.58353 19.0312 7.03125 19.0312C6.47897 19.0312 6.03125 19.479 6.03125 20.0312C6.03125 20.5835 6.47897 21.0312 7.03125 21.0312Z" fill="#A55023"></path>
                    <path d="M15.5312 8.86475C16.0835 8.86475 16.5312 8.41703 16.5312 7.86475C16.5312 7.31246 16.0835 6.86475 15.5312 6.86475C14.979 6.86475 14.5312 7.31246 14.5312 7.86475C14.5312 8.41703 14.979 8.86475 15.5312 8.86475Z" fill="#D26E28"></path>
                    <path d="M17.198 15.3647C17.7503 15.3647 18.198 14.917 18.198 14.3647C18.198 13.8125 17.7503 13.3647 17.198 13.3647C16.6457 13.3647 16.198 13.8125 16.198 14.3647C16.198 14.917 16.6457 15.3647 17.198 15.3647Z" fill="#D26E28"></path>
                    <path d="M2.53125 20.0312C3.08353 20.0312 3.53125 19.5835 3.53125 19.0312C3.53125 18.479 3.08353 18.0312 2.53125 18.0312C1.97897 18.0312 1.53125 18.479 1.53125 19.0312C1.53125 19.5835 1.97897 20.0312 2.53125 20.0312Z" fill="#A55023"></path>
                    <path d="M13.5312 18.0312C13.8074 18.0312 14.0312 17.8074 14.0312 17.5312C14.0312 17.2551 13.8074 17.0312 13.5312 17.0312C13.2551 17.0312 13.0312 17.2551 13.0312 17.5312C13.0312 17.8074 13.2551 18.0312 13.5312 18.0312Z" fill="#A55023"></path>
                    <path d="M18.5312 25.0312C18.8074 25.0312 19.0312 24.8074 19.0312 24.5312C19.0312 24.2551 18.8074 24.0312 18.5312 24.0312C18.2551 24.0312 18.0312 24.2551 18.0312 24.5312C18.0312 24.8074 18.2551 25.0312 18.5312 25.0312Z" fill="#A55023"></path>
                    <path d="M18.5312 11.0312C18.8074 11.0312 19.0312 10.8074 19.0312 10.5312C19.0312 10.2551 18.8074 10.0312 18.5312 10.0312C18.2551 10.0312 18.0312 10.2551 18.0312 10.5312C18.0312 10.8074 18.2551 11.0312 18.5312 11.0312Z" fill="#A55023"></path>
                    <path d="M6.198 14.0312C6.47414 14.0312 6.698 13.8074 6.698 13.5312C6.698 13.2551 6.47414 13.0312 6.198 13.0312C5.92186 13.0312 5.698 13.2551 5.698 13.5312C5.698 13.8074 5.92186 14.0312 6.198 14.0312Z" fill="#D26E28"></path>
                    <path d="M15.3645 23.5312C15.6406 23.5312 15.8645 23.3074 15.8645 23.0312C15.8645 22.7551 15.6406 22.5312 15.3645 22.5312C15.0884 22.5312 14.8645 22.7551 14.8645 23.0312C14.8645 23.3074 15.0884 23.5312 15.3645 23.5312Z" fill="#D26E28"></path>
                    <path d="M9.698 25.5312C9.97414 25.5312 10.198 25.3074 10.198 25.0312C10.198 24.7551 9.97414 24.5312 9.698 24.5312C9.42186 24.5312 9.198 24.7551 9.198 25.0312C9.198 25.3074 9.42186 25.5312 9.698 25.5312Z" fill="#D26E28"></path>
                    <path d="M14.3645 2.69775C14.6406 2.69775 14.8645 2.4739 14.8645 2.19775C14.8645 1.92161 14.6406 1.69775 14.3645 1.69775C14.0884 1.69775 13.8645 1.92161 13.8645 2.19775C13.8645 2.4739 14.0884 2.69775 14.3645 2.69775Z" fill="#A55023"></path>
                    <path d="M9.53125 7.03125C9.80739 7.03125 10.0312 6.80739 10.0312 6.53125C10.0312 6.25511 9.80739 6.03125 9.53125 6.03125C9.25511 6.03125 9.03125 6.25511 9.03125 6.53125C9.03125 6.80739 9.25511 7.03125 9.53125 7.03125Z" fill="#A55023"></path>
                    </g>
                    <defs>
                    <clipPath id="clip0_595_3947">
                    <rect width="30" height="30" fill="white" transform="translate(0.03125 0.03125)"></rect>
                    </clipPath>
                    </defs>
                </svg>